<svg width="77" height="77" viewBox="0 0 77 77" fill="none" xmlns="http://www.w3.org/2000/svg">
<g clip-path="url(#clip0)">
<path d="M24.0078 21.6463C22.7619 21.6463 21.7519 22.6564 21.7519 23.9022V74.7442C21.7519 75.99 22.7619 77 24.0078 77H45.7673C47.0132 77 48.0232 75.99 48.0232 74.7442V23.9022C48.0232 22.6564 47.0132 21.6463 45.7673 21.6463H24.0078Z" fill="#008BEF"/>
<path d="M54.1537 3.81947C53.503 3.42861 47.6823 0 43.7401 0H27.8349C26.5891 0 25.579 1.01002 25.579 2.25586C25.579 3.5017 26.5891 4.51172 27.8349 4.51172H32.6316V11.8485H29.9327C28.6869 11.8485 27.6768 12.8585 27.6768 14.1044V17.1133H42.0981V14.1044C42.0981 12.8585 41.0881 11.8485 39.8422 11.8485H37.1433V4.51172H43.7399C45.775 4.51172 49.7828 6.45973 51.83 7.68692C52.1937 7.90543 52.5942 8.0095 52.9895 8.0095C53.7553 8.0095 54.5023 7.61939 54.9254 6.91496C55.5672 5.84704 55.2216 4.46119 54.1537 3.81947Z" fill="#008BEF"/>
</g>
<defs>
<clipPath id="clip0">
<rect width="77" height="77" fill="white"/>
</clipPath>
</defs>
</svg>
