<svg width="82" height="82" viewBox="0 0 82 82" fill="none" xmlns="http://www.w3.org/2000/svg">
<path d="M46.7872 44.2772C45.8555 44.2772 45.1 43.5218 45.1 42.59V34.8793H36.9V42.59C36.9 43.5218 36.1445 44.2772 35.2128 44.2772H27.5021V52.4604H35.2128C36.1445 52.4604 36.9 53.2158 36.9 54.1476V61.8583H45.0831V54.1476C45.0831 53.2158 45.8386 52.4604 46.7704 52.4604H54.4979V44.2772H46.7872Z" fill="#008BEF"/>
<path d="M70.358 18.8674H11.642C6.27654 18.8674 0 21.9213 0 30.5094V67.1732C0 75.7612 6.27654 78.8151 11.642 78.8151H70.358C75.7235 78.8151 82 75.7612 82 67.1732V30.5094C82 21.9213 75.7403 18.8674 70.358 18.8674ZM57.8724 53.3209C57.8724 54.7093 56.7468 55.8349 55.3584 55.8349H48.4745V62.7188C48.4745 64.1072 47.3489 65.2328 45.9605 65.2328H36.0395C34.6511 65.2328 33.5255 64.1072 33.5255 62.7188V55.8349H26.6584C25.27 55.8442 24.1369 54.7262 24.1276 53.3378C24.1276 53.3321 24.1276 53.3264 24.1276 53.3209V43.4168C24.1276 42.0284 25.2532 40.9028 26.6416 40.9028H33.5255V34.0188C33.5255 32.6305 34.6511 31.5049 36.0395 31.5049H45.9436C47.332 31.5049 48.4576 32.6305 48.4576 34.0188V40.9028H55.3416C56.73 40.8935 57.8631 42.0115 57.8724 43.3999C57.8724 43.4056 57.8724 43.4111 57.8724 43.4168V53.3209Z" fill="#008BEF"/>
<path d="M51.8479 3.1929C51.663 3.18236 51.4774 3.18236 51.2922 3.1929H30.7078C28.0004 3.03957 25.6813 5.10982 25.528 7.817C25.5174 8.00218 25.5174 8.18756 25.528 8.37274V15.9653H28.9025L28.9193 8.37274C28.9193 7.88344 28.9193 6.56739 30.7247 6.56739H51.2922C53.0975 6.56739 53.0975 7.86656 53.0975 8.37274V15.9653H56.472V8.37274C56.6256 5.66535 54.5551 3.34644 51.8479 3.1929Z" fill="#008BEF"/>
</svg>
