<svg width="77" height="77" viewBox="0 0 77 77" fill="none" xmlns="http://www.w3.org/2000/svg">
<path d="M75.3958 16.0417H59.8717C59.9398 14.5784 59.8725 13.1073 59.5139 11.6709C58.2449 6.59839 54.5849 2.4076 49.5662 0.927309C48.2262 0.532232 45.9538 0 44.0551 0C39.0422 0 34.3581 2.4658 31.5256 6.58591L4.08852 45.9296C3.67058 46.4644 2.74358 47.8961 2.74358 47.8961C1.01363 50.7829 0 54.1463 0 57.75C0 68.365 8.63498 77 19.25 77H40.1042C40.9909 77 41.7084 76.2825 41.7084 75.3958C41.7084 74.5091 40.9909 73.7916 40.1042 73.7916H39.7567L43.6779 67.375H46.5209C47.4076 67.375 48.1252 66.6575 48.1252 65.7708C48.1252 64.8841 47.4076 64.1666 46.5209 64.1666H45.6386L49.5597 57.75H52.9375C53.8242 57.75 54.5417 57.0325 54.5417 56.1458C54.5417 55.2591 53.8242 54.5416 52.9375 54.5416H51.5205L55.4417 48.125H57.75C58.6367 48.125 59.3542 47.4075 59.3542 46.5208C59.3542 45.6341 58.6367 44.9166 57.75 44.9166H57.4024L61.3237 38.5H64.1667C65.0534 38.5 65.7709 37.7825 65.7709 36.8958C65.7709 36.0091 65.0534 35.2916 64.1667 35.2916H63.2844L67.2057 28.875H68.9792C69.8659 28.875 70.5834 28.1575 70.5834 27.2708C70.5834 26.4432 69.9501 25.787 69.1459 25.7001L73.0874 19.25H75.3958C76.2825 19.25 77 18.5325 77 17.6458C77 16.7592 76.2825 16.0417 75.3958 16.0417ZM35.9966 73.7917H19.25C10.4051 73.7917 3.20828 66.5949 3.20828 57.75C3.20828 54.581 4.16116 51.6422 5.75379 49.1516L6.3128 48.3501C9.23233 44.3446 13.9256 41.7084 19.2498 41.7084C26.3277 41.7084 32.0831 47.464 32.0831 54.5417C32.0831 61.6194 26.3278 67.375 19.25 67.375C13.9424 67.375 9.625 63.0576 9.625 57.75C9.625 52.4424 13.9424 48.125 19.25 48.125C19.6009 48.125 19.9456 48.1533 20.2808 48.2065L13.2029 56.7255C12.9649 57.0138 12.8333 57.3742 12.8333 57.7502C12.8333 61.2875 15.7127 64.1669 19.25 64.1669C24.5576 64.1669 28.875 59.8495 28.875 54.5419C28.875 49.2343 24.5576 44.9169 19.25 44.9169C12.1722 44.9169 6.41672 50.6725 6.41672 57.7502C6.41672 64.8278 12.1723 70.5833 19.25 70.5833C25.4769 70.5833 30.8271 66.9796 33.4842 61.7817L33.5401 61.8167L57.681 23.3824C58.4758 22.1001 58.9958 20.6924 59.3775 19.2498H69.3268L35.9966 73.7917Z" fill="#008BEF"/>
</svg>
