<svg width="77" height="77" viewBox="0 0 77 77" fill="none" xmlns="http://www.w3.org/2000/svg">
<path d="M38.5 0C17.3536 0 0 17.3536 0 38.5C0 59.5403 17.2552 77 38.5 77C59.6464 77 77 59.6464 77 38.5C77 17.4564 59.7415 0 38.5 0ZM4.51172 38.5C4.51172 19.8407 19.8407 4.51172 38.5 4.51172C47.0157 4.51172 54.7841 7.84768 60.7381 13.0586L51.1328 22.6639C48.5055 20.4405 44.7812 18.7746 40.7559 18.3258V11.4297C40.7559 10.1828 39.7469 9.17383 38.5 9.17383C37.2531 9.17383 36.2441 10.1828 36.2441 11.4297V18.4256C32.3498 18.8642 28.8132 20.3796 25.9 22.71L20.9532 17.7632C20.072 16.8821 18.6444 16.8821 17.7632 17.7632C16.8821 18.6444 16.8821 20.072 17.7632 20.9532L22.71 25.9C20.3796 28.8132 18.8644 32.3495 18.4256 36.2441H11.2793C10.0324 36.2441 9.02344 37.2531 9.02344 38.5C9.02344 39.7469 10.0324 40.7559 11.2793 40.7559H18.3258C18.583 43.0632 19.2255 45.2361 20.1824 47.2527C20.8593 48.6514 21.6714 49.9596 22.6639 51.1328L13.0586 60.7381C7.84768 54.7841 4.51172 47.0157 4.51172 38.5ZM40.7559 33.9883C40.7559 37.7201 37.7201 40.7559 33.9883 40.7559C30.2565 40.7559 27.2207 37.7201 27.2207 33.9883C27.2207 30.2565 30.2565 27.2207 33.9883 27.2207C37.7201 27.2207 40.7559 30.2565 40.7559 33.9883ZM38.5 72.4883C29.9843 72.4883 22.2159 69.1523 16.2619 63.9414C21.0634 59.1399 57.7723 22.4311 63.9414 16.2619C69.1523 22.2159 72.4883 29.9843 72.4883 38.5C72.4883 57.1593 57.1593 72.4883 38.5 72.4883Z" fill="#008BEF"/>
<path d="M56.8176 29.7473L29.7473 56.8176C31.7639 57.7745 33.9369 58.417 36.2441 58.6742V65.5703C36.2441 66.8172 37.2531 67.8262 38.5 67.8262C39.7469 67.8262 40.7559 66.8172 40.7559 65.5703V58.5745C44.6502 58.1355 48.1868 56.6205 51.1 54.29L56.0468 59.2368C56.928 60.1179 58.3556 60.1179 59.2368 59.2368C60.1179 58.3557 60.1179 56.928 59.2368 56.0469L54.29 51.1001C56.6204 48.1869 58.1356 44.6503 58.5744 40.7559H65.7207C66.9676 40.7559 67.9766 39.7469 67.9766 38.5C67.9766 37.2532 66.9676 36.2442 65.7207 36.2442H58.6741C58.417 33.9366 57.7745 31.7636 56.8176 29.7473ZM40.7559 52.0368C39.5097 52.0368 38.5 51.0268 38.5 49.781C38.5 48.5349 39.5097 47.5251 40.7559 47.5251C42.0017 47.5251 43.0117 48.5349 43.0117 49.781C43.0117 51.0268 42.0017 52.0368 40.7559 52.0368ZM49.7793 47.5251C48.5332 47.5251 47.5234 46.5151 47.5234 45.2693C47.5234 44.0231 48.5332 43.0134 49.7793 43.0134C51.0251 43.0134 52.0352 44.0231 52.0352 45.2693C52.0352 46.5151 51.0251 47.5251 49.7793 47.5251Z" fill="#008BEF"/>
<path d="M33.9883 36.2441C35.2342 36.2441 36.2441 35.2342 36.2441 33.9883C36.2441 32.7424 35.2342 31.7324 33.9883 31.7324C32.7424 31.7324 31.7324 32.7424 31.7324 33.9883C31.7324 35.2342 32.7424 36.2441 33.9883 36.2441Z" fill="#008BEF"/>
</svg>
