<svg width="71" height="71" viewBox="0 0 71 71" fill="none" xmlns="http://www.w3.org/2000/svg">
<g clip-path="url(#clip0)">
<path d="M70.8775 0.997228C70.6289 0.393778 70.0383 0 69.3865 0C6.76124 0 0 25.9538 0 37.1136C0 41.1284 0.890728 44.8784 2.64964 48.2574C2.92073 48.7802 3.45641 49.1126 4.04383 49.1256C4.59887 49.1094 5.1831 48.8319 5.47674 48.3188C9.70452 41.0122 21.6776 22.9781 41.4512 13.3965C42.2613 13.0092 43.2295 13.3416 43.6134 14.1388C44.0007 14.9424 43.665 15.9106 42.8648 16.2978C41.3738 17.0208 39.9409 17.8082 38.537 18.6247C38.0013 18.9376 37.4817 19.2702 36.9557 19.596C36.1649 20.0866 35.384 20.5867 34.6224 21.1032C33.864 21.6132 33.1152 22.136 32.3793 22.6717C32.1502 22.8394 31.9308 23.0105 31.7048 23.1816C12.0248 37.8463 0 61.2407 0 69.3865C0 70.2772 0.72296 71.0002 1.61369 71.0002C2.50442 71.0002 3.22738 70.2772 3.22738 69.3865C3.22738 66.7852 4.99915 61.512 8.35224 55.222C13.219 59.2012 19.7671 61.3183 27.4319 61.3183C48.1542 61.3183 52.495 41.5996 54.825 31.0045C57.9619 16.7464 64.8651 8.41683 70.5257 2.75297C70.9905 2.29142 71.126 1.60068 70.8775 0.997228Z" fill="#008BEF"/>
</g>
<defs>
<clipPath id="clip0">
<rect width="71" height="71" fill="white"/>
</clipPath>
</defs>
</svg>
