<svg width="81" height="81" viewBox="0 0 81 81" fill="none" xmlns="http://www.w3.org/2000/svg">
<g clip-path="url(#clip0)">
<path d="M54.166 42.9287C50.5212 37.2426 44.3136 33.8475 37.5603 33.8475C30.807 33.8475 24.5994 37.2426 20.9551 42.9287L12.1724 56.6299C10.7152 58.9029 10.0428 61.5293 10.2276 64.2231C10.4124 66.9175 11.4376 69.4265 13.1921 71.4806C14.9477 73.533 17.2676 74.9358 19.9009 75.5377C22.5341 76.1396 25.2334 75.8825 27.7066 74.7955L27.8722 74.722C34.0953 72.0411 41.2064 72.0659 47.4134 74.7955C49.0146 75.4994 50.7109 75.8553 52.4227 75.8553C53.3534 75.8553 54.2896 75.7497 55.2172 75.5383C57.8504 74.937 60.1703 73.5342 61.9267 71.4813C63.6817 69.4289 64.7076 66.9193 64.893 64.2243C65.0784 61.5293 64.406 58.9035 62.9488 56.6293L54.166 42.9287Z" fill="#008BEF"/>
<path d="M14.538 42.9108C17.1508 41.9072 19.1358 39.8017 20.127 36.9818C21.0707 34.2986 20.9934 31.2692 19.9089 28.4512C18.8237 25.6351 16.8499 23.3362 14.3508 21.9773C11.7256 20.5503 8.84146 20.318 6.23296 21.3234C0.985067 23.3412 -1.42321 29.8262 0.865179 35.783C2.69317 40.5241 6.95662 43.517 11.267 43.517C12.3677 43.517 13.4714 43.3217 14.538 42.9108Z" fill="#008BEF"/>
<path d="M31.5794 32.1764C38.1399 32.1764 43.4774 26.0955 43.4774 18.621C43.4774 11.1447 38.1399 5.0625 31.5794 5.0625C25.0196 5.0625 19.6827 11.1447 19.6827 18.621C19.6827 26.0955 25.0196 32.1764 31.5794 32.1764Z" fill="#008BEF"/>
<path d="M52.1273 35.5067H52.1279C53.1371 35.8417 54.1666 36.0017 55.1919 36.0017C59.9763 36.0017 64.6389 32.5194 66.4181 27.1677C67.4427 24.087 67.3754 20.8297 66.2284 17.9962C65.0283 15.0299 62.8042 12.8769 59.9652 11.9332C57.1255 10.9896 54.0548 11.3832 51.3178 13.0406C48.7031 14.6239 46.6996 17.1928 45.6762 20.2735C43.5164 26.7722 46.4104 33.6058 52.1273 35.5067Z" fill="#008BEF"/>
<path d="M77.1833 33.9247L77.1814 33.9228C72.6572 30.5808 65.8909 32.0293 62.0972 37.1536C58.3071 42.2804 58.8997 49.1728 63.4172 52.5173C65.0647 53.7378 67.0113 54.3212 69.0037 54.3212C72.4761 54.3212 76.0889 52.5488 78.5039 49.2895C82.2934 44.1628 81.7014 37.2704 77.1833 33.9247Z" fill="#008BEF"/>
</g>
<defs>
<clipPath id="clip0">
<rect width="81" height="81" fill="white"/>
</clipPath>
</defs>
</svg>
