<svg width="73" height="73" viewBox="0 0 73 73" fill="none" xmlns="http://www.w3.org/2000/svg">
<g clip-path="url(#clip0)">
<path d="M70.8613 50.426C66.5216 50.426 62.4459 48.7518 59.3838 45.7114C56.3228 42.6727 54.6375 38.6254 54.6375 34.3152C54.6375 33.1339 53.6795 32.1765 52.4988 32.1765C51.3175 32.1765 50.3601 33.1339 50.3601 34.3152C50.3601 38.6254 48.6743 42.6727 45.6133 45.7114C42.5512 48.7518 38.4755 50.426 34.1357 50.426C32.9545 50.426 31.9971 51.3833 31.9971 52.5646C31.9971 53.7459 32.9545 54.7033 34.1357 54.7033C43.0814 54.7033 50.3601 61.952 50.3601 70.8614C50.3601 72.0427 51.3175 73.0001 52.4988 73.0001C53.6795 73.0001 54.6375 72.0427 54.6375 70.8614C54.6375 61.952 61.9156 54.7033 70.8613 54.7033C72.0426 54.7033 73 53.7459 73 52.5646C73 51.3833 72.0426 50.426 70.8613 50.426Z" fill="#008BEF"/>
<path d="M29.2619 33.7037C22.9634 33.7037 17.839 28.6171 17.839 22.3643C17.839 21.1835 16.8816 20.2256 15.7003 20.2256C14.519 20.2256 13.5616 21.1835 13.5616 22.3643C13.5616 28.6171 8.43717 33.7037 2.13867 33.7037C0.95739 33.7037 0 34.6616 0 35.8423C0 37.0236 0.95739 37.981 2.13867 37.981C8.43717 37.981 13.5616 43.0838 13.5616 49.3555C13.5616 50.5363 14.519 51.4942 15.7003 51.4942C16.8816 51.4942 17.839 50.5363 17.839 49.3555C17.839 43.0838 22.9634 37.981 29.2619 37.981C30.4432 37.981 31.4006 37.0236 31.4006 35.8423C31.4006 34.6616 30.4432 33.7037 29.2619 33.7037Z" fill="#008BEF"/>
<path d="M32.7411 14.7791C37.3733 14.7791 41.1421 18.519 41.1421 23.1155C41.1421 24.2962 42.0995 25.2542 43.2808 25.2542C44.4621 25.2542 45.4195 24.2962 45.4195 23.1155C45.4195 18.504 49.1883 14.7524 53.8204 14.7524C55.0017 14.7524 55.9591 13.7944 55.9591 12.6137C55.9591 11.4324 55.0017 10.475 53.8204 10.475C49.1883 10.475 45.4195 6.73515 45.4195 2.13867C45.4195 0.95739 44.4621 0 43.2808 0C42.0995 0 41.1421 0.95739 41.1421 2.13867C41.1421 6.75018 37.3733 10.5018 32.7411 10.5018C31.5599 10.5018 30.6025 11.4592 30.6025 12.6404C30.6025 13.8217 31.5599 14.7791 32.7411 14.7791Z" fill="#008BEF"/>
</g>
<defs>
<clipPath id="clip0">
<rect width="73" height="73" fill="white"/>
</clipPath>
</defs>
</svg>
