<svg width="84" height="84" viewBox="0 0 84 84" fill="none" xmlns="http://www.w3.org/2000/svg">
<path d="M66.9375 39.375C66.9375 41.6194 64.1169 43.3125 60.375 43.3125C60.0377 43.3125 59.7174 43.2836 59.3959 43.2574C59.1951 44.5673 59.0625 45.8889 59.0625 47.2106V52.5394C59.0625 54.4924 59.2948 56.4388 59.7266 58.3419L70.2516 59.9616C71.5168 57.6109 72.1875 54.9767 72.1875 52.2847V47.4639C72.1875 42.4659 69.8486 37.6937 65.9308 34.6986C65.5909 34.4387 65.1971 34.2733 64.7889 34.1906L64.596 36.3143C66.0804 37.0361 66.9375 38.136 66.9375 39.375Z" fill="#008BEF"/>
<path d="M14.5044 69.5625C14.4651 69.1294 14.4375 68.6936 14.4375 68.25C14.4375 67.8064 14.4651 67.3706 14.5044 66.9375H8.92763H5.25C4.52681 66.9375 3.9375 67.5268 3.9375 68.25C3.9375 68.9732 4.52681 69.5625 5.25 69.5625H8.92763H14.5044Z" fill="#008BEF"/>
<path d="M31.92 15.0058L31.5499 15.8747L30.6088 15.7986C30.5156 15.792 30.4224 15.7789 30.3306 15.7671C30.2833 15.7605 30.2361 15.75 30.1875 15.75C27.6163 15.75 25.3956 17.6794 25.0202 20.2388L24.8981 21.0774L24.0831 21.3111C20.7218 22.2718 18.375 25.3824 18.375 28.875C18.375 31.8504 20.0287 34.5384 22.6918 35.8929L24.0069 36.561L23.1892 37.7895C22.6157 38.6531 22.3125 39.6546 22.3125 40.6875C22.3125 42.4883 23.2326 44.1433 24.7734 45.1172L25.683 45.6921L25.2997 46.6961C25.0596 47.3235 24.9375 47.9509 24.9375 48.5625C24.9375 51.4789 27.2921 53.8506 30.1875 53.8506C30.5852 53.8781 30.9829 53.9188 31.3779 53.9805L38.8421 55.1289C38.3355 53.4502 38.0625 51.7164 38.0625 49.9419V47.1818C38.0625 46.3759 38.1308 45.5779 38.2384 44.7878C34.7799 42.0394 28.9367 42 28.875 42V39.375C29.1217 39.375 33.8822 39.4078 37.8722 41.454C37.0716 38.7988 36.1633 36.3182 35.2446 34.0567C32.6327 31.3911 27.0414 31.2953 25.0674 31.4934L24.8062 28.8816C25.0622 28.854 29.5234 28.4471 33.4491 29.925C31.1207 24.9139 29.1178 21.7652 29.0824 21.7101L31.2913 20.2899C31.4567 20.5485 34.0344 24.6054 36.7657 30.8752C38.7594 25.6449 42.3111 22.7456 42.4922 22.5999L43.3125 23.625L44.1341 24.6474C44.0882 24.6855 39.585 28.3959 38.3709 34.8101C38.9091 36.2184 39.4314 37.7016 39.9289 39.2503C41.2033 36.6529 43.0854 34.3468 45.4742 32.5841C46.4205 31.8846 47.5939 31.5 48.7764 31.5C49.1492 31.5 49.5114 31.5486 49.8671 31.6194C49.8671 31.5787 49.875 31.5394 49.875 31.5C49.875 30.1206 49.3395 28.8159 48.3669 27.8263L47.4653 26.9062L48.3683 25.9862C49.3395 24.9966 49.875 23.6919 49.875 22.3125C49.875 19.4171 47.5204 17.0625 44.625 17.0625C44.2628 17.0625 43.8887 17.1071 43.4818 17.1977L42.1431 17.4956L41.9042 16.1451C41.4606 13.6342 39.2936 11.8125 36.75 11.8125C34.6434 11.8125 32.7482 13.0659 31.92 15.0058Z" fill="#008BEF"/>
<path d="M10.8793 28.0179L12.1944 28.686L11.3767 29.9145C10.8032 30.7781 10.5 31.7796 10.5 32.8125C10.5 34.6133 11.4201 36.2683 12.9609 37.2422L13.8705 37.8171L13.4859 38.8211C13.2471 39.4472 13.125 40.0746 13.125 40.6875C13.125 43.5829 15.4796 45.9375 18.375 45.9375H19.3003L22.6275 55.2549C23.3481 54.9071 24.0962 54.6144 24.8758 54.3887C23.3047 52.941 22.3125 50.8686 22.3125 48.5625C22.3125 47.9548 22.3886 47.3432 22.5396 46.7342C20.7375 45.2458 19.6875 43.05 19.6875 40.6875C19.6875 39.5994 19.9106 38.5337 20.3424 37.548C17.4799 35.6055 15.75 32.3912 15.75 28.875C15.75 24.4899 18.5233 20.5564 22.5868 19.0404C23.4478 15.6988 26.4508 13.2458 29.9276 13.1289C30.9474 11.3571 32.6091 10.0761 34.5384 9.51169C33.9898 9.32006 33.4162 9.1875 32.8125 9.1875C32.4502 9.1875 32.0762 9.23213 31.6693 9.32269L30.3306 9.62063L30.0917 8.27006C29.6481 5.75925 27.4811 3.9375 24.9375 3.9375C22.8309 3.9375 20.9357 5.19094 20.1075 7.13081L19.7361 8.00362L18.7911 7.92488C18.7005 7.917 18.6099 7.90519 18.5207 7.89337C18.4734 7.8855 18.4249 7.875 18.375 7.875C15.8038 7.875 13.5817 9.80438 13.2064 12.3638L13.0843 13.2024L12.2692 13.4361C8.90925 14.3968 6.5625 17.5074 6.5625 21C6.5625 23.9754 8.21625 26.6634 10.8793 28.0179Z" fill="#008BEF"/>
<path d="M60.375 40.6875C62.916 40.6875 64.3125 39.7018 64.3125 39.375C64.3125 39.2713 63.9502 38.787 62.8005 38.4182L61.7991 38.0966L62.9908 24.9887C62.9974 24.9152 63 24.8404 63 24.7669C63 23.4137 61.8988 22.3125 60.5456 22.3125H60.2044C58.8512 22.3125 57.75 23.4137 57.75 24.7669C57.75 24.8417 57.7526 24.9165 57.7605 24.99L58.9523 38.0966L57.9508 38.4182C56.7997 38.787 56.4375 39.2713 56.4375 39.375C56.4375 39.7018 57.834 40.6875 60.375 40.6875Z" fill="#008BEF"/>
<path d="M47.0334 34.6959C43.0605 37.6294 40.6875 42.2979 40.6875 47.1831V49.9432C40.6875 51.8884 41.0681 53.7784 41.7808 55.5817L46.3916 56.2905C46.1003 54.978 45.9375 53.6393 45.9375 52.2861V47.4653C45.9375 42.8256 47.7383 38.3696 50.8331 34.9794C50.2989 34.4439 49.5692 34.125 48.7764 34.125C48.1517 34.125 47.5322 34.3271 47.0334 34.6959Z" fill="#008BEF"/>
<path d="M48.5625 52.2847C48.5625 53.7941 48.7883 55.2812 49.2096 56.7236L56.9468 57.9141C56.6108 56.1435 56.4375 54.3427 56.4375 52.5394V47.2106C56.4375 45.7065 56.5911 44.2024 56.826 42.7127C54.9924 42.0302 53.8125 40.8214 53.8125 39.375C53.8125 38.136 54.6696 37.0361 56.154 36.3142L55.965 34.2339C55.6119 34.3311 55.2733 34.4899 54.9806 34.7091C50.9617 37.7042 48.5625 42.4725 48.5625 47.4652V52.2847Z" fill="#008BEF"/>
<path d="M8.92763 72.1875C8.3475 72.1875 7.875 72.66 7.875 73.2401V73.7599C7.875 74.4174 8.53256 74.9214 9.15469 74.7889L15.4035 73.4003C15.2513 73.0039 15.1148 72.6009 14.9979 72.1888H8.92763V72.1875Z" fill="#008BEF"/>
<path d="M7.875 62.7401V63.2599C7.875 63.84 8.3475 64.3125 8.92763 64.3125H14.9966C15.1134 63.9004 15.2512 63.4974 15.4022 63.1011L9.156 61.7124C8.51287 61.5733 7.875 62.0812 7.875 62.7401Z" fill="#008BEF"/>
<path d="M75.9859 63.4988L30.9803 56.5753C30.3857 56.4834 29.7806 56.4375 29.1834 56.4375H28.875C22.3624 56.4375 17.0625 61.7374 17.0625 68.25C17.0625 74.7626 22.3624 80.0625 28.875 80.0625H29.1834C29.7806 80.0625 30.3857 80.0166 30.9803 79.926L75.9859 73.0026C78.3484 72.6377 80.0625 70.6401 80.0625 68.25C80.0625 65.8599 78.3484 63.8623 75.9859 63.4988ZM30.1875 74.8125H27.5625V61.6875H30.1875V74.8125ZM40.6875 74.8125H38.0625V61.6875H40.6875V74.8125ZM51.1875 74.8125H48.5625V61.6875H51.1875V74.8125ZM61.6875 72.1875H59.0625V64.3125H61.6875V72.1875ZM72.1875 70.875H69.5625V65.625H72.1875V70.875Z" fill="#008BEF"/>
<path d="M73.7166 34.6973C73.2178 34.3271 72.5983 34.125 71.9736 34.125C71.2163 34.125 70.5128 34.4256 69.9825 34.9256C73.0341 38.3237 74.8125 42.8006 74.8125 47.4639V52.2847C74.8125 55.1001 74.176 57.8616 72.9763 60.3789L75.5843 60.7806C78.4284 57.8852 80.0625 53.9792 80.0625 49.9419V47.1818C80.0625 42.2979 77.6895 37.6294 73.7166 34.6973Z" fill="#008BEF"/>
</svg>
